<svg width="61" height="61" viewBox="0 0 61 61" fill="none" xmlns="http://www.w3.org/2000/svg">
<path class="icon" fill-rule="evenodd" clip-rule="evenodd" d="M32.3535 32.0552V48.2868H32.2581C32.3209 48.6939 32.3535 49.111 32.3535 49.5358C32.3535 54.023 28.7158 57.6608 24.2285 57.6608C19.7412 57.6608 16.1035 54.023 16.1035 49.5358C16.1035 45.0485 19.7412 41.4108 24.2285 41.4108C25.8393 41.4108 27.3406 41.8795 28.6035 42.6881V30.8296C28.6028 30.8007 28.6029 30.7719 28.6035 30.7431V22.9055L28.6035 22.8098C28.6035 21.2791 28.6034 19.9824 28.7193 18.9162C28.8423 17.7824 29.1103 16.738 29.755 15.7689C30.4 14.7998 31.26 14.1495 32.2585 13.5981C33.197 13.0798 34.3928 12.5794 35.8043 11.9887L35.8938 11.9512L40.8938 9.85851L41.0374 9.79838C44.0483 8.53805 46.5037 7.51023 48.4843 7.00556C50.5318 6.48378 52.5195 6.39963 54.2875 7.57633C56.0555 8.75301 56.7453 10.619 57.0545 12.7092C57.3537 14.7302 57.3536 17.3909 57.3535 20.6534V20.7422C57.3542 20.7709 57.3542 20.7996 57.3535 20.8281V43.6713H57.3081C57.3381 43.9553 57.3535 44.2438 57.3535 44.5358C57.3535 49.023 53.7158 52.6608 49.2285 52.6608C44.7412 52.6608 41.1035 49.023 41.1035 44.5358C41.1035 40.0485 44.7412 36.4108 49.2285 36.4108C50.8393 36.4108 52.3406 36.8795 53.6035 37.6881V23.5552L32.3535 32.0552ZM32.3535 28.0163L53.6027 19.5166C53.598 16.7454 53.5655 14.7493 53.345 13.258C53.0968 11.5801 52.6715 11.0055 52.2098 10.6982C51.7483 10.3909 51.054 10.2206 49.4103 10.6394C47.731 11.0674 45.5323 11.9822 42.3415 13.3177L37.3415 15.4105C35.816 16.049 34.8105 16.4726 34.0713 16.8808C33.3723 17.2668 33.0695 17.5572 32.877 17.8465C32.6843 18.1359 32.5335 18.5273 32.4473 19.3212C32.356 20.1606 32.3535 21.2516 32.3535 22.9055V28.0163ZM44.8535 44.5358C44.8535 42.1195 46.8123 40.1608 49.2285 40.1608C51.6447 40.1608 53.6035 42.1195 53.6035 44.5358C53.6035 46.952 51.6447 48.9108 49.2285 48.9108C46.8123 48.9108 44.8535 46.952 44.8535 44.5358ZM19.8535 49.5358C19.8535 47.1195 21.8123 45.1608 24.2285 45.1608C26.6447 45.1608 28.6035 47.1195 28.6035 49.5358C28.6035 51.952 26.6447 53.9108 24.2285 53.9108C21.8123 53.9108 19.8535 51.952 19.8535 49.5358Z" fill="#000000"/>
<path class="icon" opacity="0.5" d="M17.9785 28.2858V5.78577C17.9785 10.9634 22.3719 13.2858 25.4785 13.2858M17.9785 27.0358C17.9785 30.4875 15.1803 33.2858 11.7285 33.2858C8.27674 33.2858 5.47852 30.4875 5.47852 27.0358C5.47852 23.584 8.27674 20.7858 11.7285 20.7858C15.1803 20.7858 17.9785 23.584 17.9785 27.0358Z" stroke="#000000" stroke-width="3.75" stroke-linecap="round" stroke-linejoin="round"/>
<style>
.icon {
    animation: vibrate-1 1s linear infinite both;
    transform-origin: center; /* Define o ponto de rotação como o centro do próprio path */
    transform-box: fill-box; /* Faz com que o centro seja relativo ao próprio path */
}

@keyframes vibrate-1 {
  0% {
    transform: translate(0);
  }
  20% {
    transform: translate(-2px, 2px) rotate(-6deg);
  }
  40% {
    transform: translate(-2px, -2px) rotate(6deg);;
  }
  60% {
    transform: translate(2px, 2px) rotate(-3.6deg);
  }
  80% {
    transform: translate(2px, -2px) rotate(2.4deg);
  }
  100% {
    transform: translate(0) rotate(-1.2deg);
  }
}
</style>
</svg>