<svg width="1281" height="720" viewBox="0 0 1281 720" fill="none" xmlns="http://www.w3.org/2000/svg">
<g id="Paginas_Modelo_3" clip-path="url(#clip0_710_1350)">
<rect width="1280" height="720" transform="translate(0.392578)" fill="white"/>
<rect id="bg_img" x="0.392578" width="1280" height="720" fill="url(#paint0_linear_710_1350)"/>
<path id="Union" fill-rule="evenodd" clip-rule="evenodd" d="M167.393 27C167.393 23.134 164.259 20 160.393 20H27.3926C23.5266 20 20.3926 23.134 20.3926 27V88C20.3926 91.866 23.5266 95 27.3926 95H33.3926C37.2586 95 40.3926 98.134 40.3926 102V693C40.3926 696.866 43.5266 700 47.3926 700H1253.39C1257.26 700 1260.39 696.866 1260.39 693V62C1260.39 58.134 1257.26 55 1253.39 55H174.393C170.527 55 167.393 51.866 167.393 48V27Z" fill="#F7F7F7"/>
<g id="Group">
<g transform="translate(48, 35)">
<path d="M13.9378 42.1822H15.2587V47.8504H13.9378V42.1822ZM13.9062 40.1416H15.3016V41.3553H13.9062V40.1416Z" fill="black"/>
<path d="M17.3625 42.182H18.6179L18.6822 43.5887H18.7567C19.0251 42.6231 19.6377 42.0737 20.4859 42.0737C21.6015 42.0737 22.4081 42.7302 22.4081 44.5012V47.8514H21.0871V44.6298C21.0871 43.6541 20.7002 43.2672 20.0133 43.2672C19.2293 43.2672 18.6822 44.0399 18.6822 45.3393V47.8514H17.3613V42.182H17.3625Z" fill="black"/>
<path d="M24.38 42.182H25.6355L25.6998 43.5887H25.7743C26.0427 42.6231 26.6552 42.0737 27.5035 42.0737C28.6191 42.0737 29.4256 42.7302 29.4256 44.5012V47.8514H28.1047V44.6298C28.1047 43.6541 27.7178 43.2672 27.0309 43.2672C26.2469 43.2672 25.6998 44.0399 25.6998 45.3393V47.8514H24.3789V42.182H24.38Z" fill="black"/>
<path d="M33.8155 46.949C34.7923 46.949 35.1905 46.068 35.1905 45.0156C35.1905 43.9733 34.8036 43.0833 33.8155 43.0833C32.8296 43.0833 32.4427 43.9733 32.4427 45.0156C32.4416 46.0691 32.8386 46.949 33.8155 46.949ZM31.1094 45.0167C31.1094 43.2672 32.0761 42.0737 33.8155 42.0737C35.5661 42.0737 36.5216 43.2672 36.5216 45.0167C36.5216 46.7663 35.5661 47.9586 33.8155 47.9586C32.0772 47.9574 31.1094 46.7663 31.1094 45.0167Z" fill="black"/>
<path d="M37.5273 42.182H38.934L40.2966 46.7775H40.3293L41.6931 42.182H43.0986L41.3378 47.8503H39.287L37.5273 42.182Z" fill="black"/>
<path d="M46.439 47.002C47.3617 47.002 48.0374 46.2722 48.0374 45.2626V45.0167L46.792 45.178C45.8265 45.3066 45.3854 45.6935 45.3854 46.2079C45.3843 46.6907 45.7712 47.002 46.439 47.002ZM44.0859 46.3466C44.0859 45.1667 45.0414 44.6185 46.9094 44.3828L48.0362 44.2327C48.0047 43.3958 47.426 43.019 46.7909 43.019C46.1784 43.019 45.567 43.2988 45.5016 44.1797L44.3104 44.0387C44.4063 42.7945 45.47 42.0737 46.7999 42.0737C48.4006 42.0737 49.3244 42.8803 49.3244 44.4482V47.8514H48.0678L48.0035 46.5215H47.9279C47.7351 47.2186 47.1 47.9586 46.0058 47.9586C44.8485 47.9574 44.0859 47.2705 44.0859 46.3466Z" fill="black"/>
<path d="M51.7292 45.9395V43.2762H50.7637V42.2238H51.172C51.5905 42.2238 51.7417 42.0095 51.7631 41.591L51.8263 40.3569H53.0502V42.1821H54.8764V43.2762H53.0502V45.6924C53.0502 46.6039 53.5555 46.8407 54.0597 46.8407C54.4139 46.8407 54.7692 46.7325 54.9508 46.6366L55.0377 47.636C54.8008 47.786 54.2436 47.9575 53.6627 47.9575C52.7287 47.9575 51.7292 47.5401 51.7292 45.9395Z" fill="black"/>
<path d="M56.7941 42.1822H58.1162V47.8504H56.7941V42.1822ZM56.7637 40.1416H58.159V41.3553H56.7637V40.1416Z" fill="black"/>
<path d="M62.6338 46.949C63.6096 46.949 64.0089 46.068 64.0089 45.0156C64.0089 43.9733 63.622 43.0833 62.6338 43.0833C61.6457 43.0833 61.2588 43.9733 61.2588 45.0156C61.2588 46.0691 61.6559 46.949 62.6338 46.949ZM59.9277 45.0167C59.9277 43.2672 60.8933 42.0737 62.6338 42.0737C64.3834 42.0737 65.3388 43.2672 65.3388 45.0167C65.3388 46.7663 64.3834 47.9586 62.6338 47.9586C60.8944 47.9574 59.9277 46.7663 59.9277 45.0167Z" fill="black"/>
<path d="M67.0441 42.182H68.2996L68.3639 43.5887H68.4383C68.7079 42.6231 69.3193 42.0737 70.1676 42.0737C71.2843 42.0737 72.0897 42.7302 72.0897 44.5012V47.8514H70.7688V44.6298C70.7688 43.6541 70.383 43.2672 69.6961 43.2672C68.9098 43.2672 68.3639 44.0399 68.3639 45.3393V47.8514H67.043V42.182H67.0441Z" fill="black"/>
<path d="M5.77429 11.6727H0V34.6717H5.77429V11.6727Z" fill="black"/>
<path d="M5.77429 3.45837H0V9.36013H5.77429V3.45837Z" fill="black"/>
<path d="M5.77429 42.0807H0V47.855H5.77429V42.0807Z" fill="#FF4F1C"/>
<path d="M26.9659 12.9146C20.2734 13.1165 19.7139 18.4441 19.7139 19.0261H33.5253C33.5253 18.7126 33.4802 13.2947 27.2581 12.9146H26.9659ZM39.5229 23.5021H19.7365C19.7579 23.9725 19.5797 29.5223 27.055 29.9036H27.3923C30.5936 29.7265 32.7413 28.6955 33.5016 26.3458H39.1654C39.1654 26.8151 37.3075 35.0744 27.4137 35.2537H26.9208C18.6852 35.142 13.8945 29.053 13.8945 21.4209C13.8945 13.6985 18.7517 7.65466 26.6749 7.56555H26.9445C39.5004 8.01337 39.5229 19.1141 39.5229 23.5021Z" fill="black"/>
<path d="M60.3295 29.7705C65.4552 29.7705 68.0745 26.7925 68.0745 21.4875C68.0745 16.1824 65.4563 13.2282 60.3295 13.2282C55.5851 13.2282 53.7273 15.7583 53.5039 20.6821V22.3166C53.7273 27.22 55.5851 29.7716 60.1062 29.7716H60.3295V29.7705ZM60.3295 7.65468C68.3655 7.65468 73.8273 13.632 73.8273 21.4875C73.8273 29.3452 68.3666 35.3428 60.3295 35.3428C56.6139 35.3428 54.3319 33.2617 53.5039 31.8516V34.7157H47.7285V0H53.5039V10.9451C54.3319 9.7133 56.4356 7.65468 60.1062 7.65468H60.3295Z" fill="black"/>
<path d="M93.0005 29.2991V34.6719H87.718C82.211 34.6493 82.211 29.0984 82.211 28.8739V13.1393H79.3008V8.21436H82.211V3.35828H87.9853V8.21436H92.7094V13.1393H87.9853V28.7397C88.1647 28.919 87.9853 29.2326 88.925 29.2552L93.0005 29.2991Z" fill="black"/>
<path fill-rule="evenodd" clip-rule="evenodd" d="M60.3301 29.7705C65.4558 29.7705 68.075 26.7925 68.075 21.4875C68.075 16.1824 65.4569 13.2282 60.3301 13.2282C55.5857 13.2282 53.7278 15.7583 53.5045 20.6821V22.3166C53.7278 27.22 55.5857 29.7716 60.1067 29.7716H60.3301V29.7705ZM60.3301 7.65468C68.366 7.65468 73.8279 13.632 73.8279 21.4875C73.8279 29.3452 68.3672 35.3428 60.3301 35.3428C56.6144 35.3428 54.3325 33.2617 53.5045 31.8516V34.7157H47.7291V0H53.5045V10.9451C54.3325 9.7133 56.4362 7.65468 60.1067 7.65468H60.3301ZM0 3.4584H5.77429V9.36015H0V3.4584ZM5.77429 11.6728H0V34.6718H5.77429V11.6728ZM15.2594 42.1822H13.9385V47.8504H15.2594V42.1822ZM15.3023 40.1416H13.9069V41.3553H15.3023V40.1416ZM18.6183 42.182H17.3628H17.3617V47.8514H18.6826V45.3393C18.6826 44.0399 19.2297 43.2672 20.0136 43.2672C20.7006 43.2672 21.0875 43.6541 21.0875 44.6298V47.8514H22.4084V44.5012C22.4084 42.7303 21.6019 42.0738 20.4863 42.0738C19.638 42.0738 19.0255 42.6231 18.757 43.5887H18.6826L18.6183 42.182ZM24.381 42.182H25.6365L25.7007 43.5887H25.7752C26.0437 42.6231 26.6562 42.0738 27.5044 42.0738C28.62 42.0738 29.4266 42.7303 29.4266 44.5012V47.8514H28.1057V44.6298C28.1057 43.6541 27.7188 43.2672 27.0318 43.2672C26.2478 43.2672 25.7007 44.0399 25.7007 45.3393V47.8514H24.3798V42.182H24.381ZM35.1921 45.0156C35.1921 46.068 34.7939 46.949 33.817 46.949C32.8402 46.949 32.4431 46.0692 32.4442 45.0156C32.4442 43.9733 32.8311 43.0833 33.817 43.0833C34.8052 43.0833 35.1921 43.9733 35.1921 45.0156ZM33.817 42.0738C32.0776 42.0738 31.1109 43.2672 31.1109 45.0167C31.1109 46.7663 32.0788 47.9575 33.817 47.9586C35.5677 47.9586 36.5231 46.7663 36.5231 45.0167C36.5231 43.2672 35.5677 42.0738 33.817 42.0738ZM37.529 42.182H38.9356L40.2983 46.7775H40.331L41.6947 42.182H43.1002L41.3394 47.8503H39.2887L37.529 42.182ZM48.0379 45.2626C48.0379 46.2722 47.3623 47.002 46.4396 47.002C45.7718 47.002 45.3849 46.6907 45.386 46.2079C45.386 45.6935 45.827 45.3066 46.7926 45.178L48.0379 45.0167V45.2626ZM46.9099 44.3828C45.042 44.6186 44.0865 45.1668 44.0865 46.3467C44.0865 47.2705 44.8491 47.9575 46.0064 47.9586C47.1006 47.9586 47.7356 47.2186 47.9285 46.5215H48.0041L48.0684 47.8514H49.325V44.4482C49.325 42.8803 48.4012 42.0738 46.8005 42.0738C45.4706 42.0738 44.4069 42.7946 44.311 44.0388L45.5022 44.1798C45.5676 43.2988 46.179 43.019 46.7915 43.019C47.4266 43.019 48.0052 43.3958 48.0368 44.2328L46.9099 44.3828ZM51.7297 45.9394V43.2762H50.7641V42.2238H51.1724C51.5909 42.2238 51.7421 42.0095 51.7635 41.591L51.8267 40.3569H53.0506V42.182H54.8768V43.2762H53.0506V45.6924C53.0506 46.6038 53.5559 46.8407 54.0601 46.8407C54.4143 46.8407 54.7696 46.7324 54.9513 46.6366L55.0381 47.636C54.8012 47.786 54.244 47.9575 53.6631 47.9575C52.7291 47.9575 51.7297 47.5401 51.7297 45.9394ZM58.1162 42.1822H56.7941V47.8504H58.1162V42.1822ZM58.159 40.1416H56.7637V41.3553H58.159V40.1416ZM62.6342 46.949C63.6099 46.949 64.0092 46.068 64.0092 45.0156C64.0092 43.9733 63.6223 43.0833 62.6342 43.0833C61.6461 43.0833 61.2592 43.9733 61.2592 45.0156C61.2592 46.0692 61.6562 46.949 62.6342 46.949ZM59.9281 45.0167C59.9281 43.2672 60.8937 42.0738 62.6342 42.0738C64.3837 42.0738 65.3392 43.2672 65.3392 45.0167C65.3392 46.7663 64.3837 47.9586 62.6342 47.9586C60.8948 47.9575 59.9281 46.7663 59.9281 45.0167ZM68.3002 42.182H67.0447H67.0436V47.8514H68.3645V45.3393C68.3645 44.0399 68.9104 43.2672 69.6967 43.2672C70.3836 43.2672 70.7694 43.6541 70.7694 44.6298V47.8514H72.0903V44.5012C72.0903 42.7303 71.2849 42.0738 70.1682 42.0738C69.3199 42.0738 68.7085 42.6231 68.4389 43.5887H68.3645L68.3002 42.182ZM5.77429 42.0806H0V47.8549H5.77429V42.0806ZM19.713 19.0262C19.713 18.4441 20.2725 13.1165 26.965 12.9146H27.2572C33.4793 13.2947 33.5244 18.7126 33.5244 19.0262H19.713ZM19.7356 23.5021H39.522C39.522 19.1142 39.4995 8.0134 26.9436 7.56558H26.674C18.7508 7.65469 13.8936 13.6986 13.8936 21.4209C13.8936 29.0531 18.6843 35.1421 26.9199 35.2537H27.4128C37.3066 35.0744 39.1644 26.8151 39.1644 26.3458H33.5007C32.7404 28.6955 30.5927 29.7265 27.3914 29.9036H27.0541C19.8622 29.5368 19.7545 24.3859 19.7376 23.577C19.7369 23.5451 19.7364 23.52 19.7356 23.5021ZM93 34.6718V29.2991L88.9245 29.2551C88.2203 29.2382 88.1446 29.0579 88.0754 28.8931C88.0522 28.8379 88.0298 28.7846 87.9849 28.7396V13.1392H92.709V8.21433H87.9849V3.35824H82.2106V8.21433H79.3003V13.1392H82.2106V28.8739C82.2106 29.0983 82.2106 34.6493 87.7175 34.6718H93Z" fill="white" mask="url(#moving-mask)"/>
</g>
  <defs>
    <mask id="moving-mask">
      <!-- Retângulo branco na máscara que será animado com gradiente -->
      <rect x="-500px" y="-100" width="40" height="600" fill="url(#fade-gradient)" transform="rotate(135, 30, 50)">
        <animate attributeName="x" from="60" to="-300" dur="8s" begin="0s" repeatCount="indefinite" />
      </rect>
    </mask>

    <!-- Definindo um gradiente de opacidade para sombra -->
    <linearGradient id="fade-gradient" x1="0%" y1="0%" x2="100%" y2="0%">
      <stop offset="0%" style="stop-color: rgba(0, 0, 0, 1);" />
      <!-- Ajuste a opacidade -->
      <stop offset="50%" style="stop-color: rgba(255, 255, 255, 0.8);" />
      <!-- Ajuste a opacidade -->
      <stop offset="100%" style="stop-color: rgba(0, 0, 0, 1);" />
      <!-- Ajuste a opacidade -->
    </linearGradient>
  </defs>
</g>
</g>
<defs>
<linearGradient id="paint0_linear_710_1350" x1="0.392578" y1="0" x2="366.393" y2="203" gradientUnits="userSpaceOnUse">
<stop stop-color="#FF4F1C"/>
<stop offset="1"/>
</linearGradient>
<clipPath id="clip0_710_1350">
<rect width="1280" height="720" fill="white" transform="translate(0.392578)"/>
</clipPath>
</defs>
</svg>
