<svg width="1280" height="720" viewBox="0 0 1280 720" fill="none" xmlns="http://www.w3.org/2000/svg">
<g id="Background" clip-path="url(#clip0_2_2)">
<rect id="Rectangle 1" width="1280" height="720" fill="#F7F7F7"/>
<g id="Rectangle 2" filter="url(#filter0_d_2_2)">
<rect y="71" width="183" height="649" fill="white"/>
</g>
<g id="Rectangle 3" filter="url(#filter1_d_2_2)">
<rect width="1280" height="71" fill="white"/>
</g>
<path id="Vector" d="M50.7422 31.5251C51.1595 31.5251 51.2986 31.6757 51.2986 32.0811V41.2548H56.0166C56.4223 41.2548 56.573 41.4054 56.573 41.8108V42.6216C56.573 43.027 56.4223 43.1776 56.0166 43.1776H49.8033C49.3975 43.1776 49.2352 43.027 49.2352 42.6216V32.0811C49.2352 31.6757 49.3975 31.5251 49.8033 31.5251H50.7422ZM60.6882 35.5676C60.6882 32.8919 62.3807 31.2819 65.3251 31.2819C68.2695 31.2819 69.9619 32.8919 69.9619 35.5676V39.1351C69.9619 41.8108 68.2579 43.4209 65.3251 43.4209C62.3923 43.4209 60.6882 41.8108 60.6882 39.1351V35.5676ZM68.0144 35.5676C68.0144 34.0618 67.0755 33.251 65.383 33.251C63.6906 33.251 62.7632 34.0734 62.7632 35.5676V39.1583C62.7632 40.6757 63.6906 41.4749 65.383 41.4749C67.0755 41.4749 68.0144 40.6409 68.0144 39.1583V35.5676ZM83.7681 36.7954C84.2202 36.7954 84.3245 36.9459 84.3245 37.3514V39.5521C84.3368 40.0705 84.2328 40.5851 84.0202 41.0581C83.8075 41.5311 83.4917 41.9505 83.0957 42.2857C82.1124 43.0682 80.8725 43.4563 79.6181 43.3745C76.6158 43.3745 74.9813 41.7645 74.9813 39.0888V35.4981C74.9813 32.8571 76.6737 31.2355 79.6181 31.2355C81.9365 31.2355 83.4435 32.1506 84.0811 33.9807C84.1167 34.0495 84.1358 34.1256 84.1369 34.203C84.138 34.2805 84.1209 34.3571 84.0872 34.4268C84.0534 34.4965 84.0039 34.5574 83.9424 34.6046C83.881 34.6519 83.8094 34.6841 83.7333 34.6988L82.8291 35.0116C82.435 35.1506 82.2727 35.0695 82.1336 34.6641C81.9416 34.1693 81.59 33.7527 81.1344 33.48C80.6788 33.2072 80.1453 33.0941 79.6181 33.1583C77.9141 33.1583 76.9867 33.9807 76.9867 35.4749V39.1583C76.9867 40.6757 77.9257 41.4749 79.6181 41.4749C81.3106 41.4749 82.3538 40.6988 82.3538 39.5637V38.7066H79.8384C79.421 38.7066 79.2703 38.5444 79.2703 38.139V37.3514C79.2703 36.9459 79.421 36.7954 79.8384 36.7954H83.7681ZM89.112 35.5676C89.112 32.8919 90.8045 31.2819 93.7489 31.2819C96.6933 31.2819 98.3857 32.8919 98.3857 35.5676V39.1351C98.3857 41.8108 96.6817 43.4209 93.7489 43.4209C90.8161 43.4209 89.112 41.8108 89.112 39.1351V35.5676ZM96.4266 35.5676C96.4266 34.0618 95.4877 33.251 93.8068 33.251C92.126 33.251 91.1754 34.0734 91.1754 35.5676V39.1583C91.1754 40.6757 92.1144 41.4749 93.8068 41.4749C95.4993 41.4749 96.4266 40.6409 96.4266 39.1583V35.5676ZM103.846 31.861C103.846 31.6062 103.927 31.5251 104.182 31.5251H104.715C104.97 31.5251 105.028 31.6062 105.028 31.861V42.8417C105.028 43.0965 105.028 43.1776 104.715 43.1776H104.182C103.927 43.1776 103.846 43.0965 103.846 42.8417V31.861ZM115.588 31.5251C116.554 31.5251 117.48 31.9083 118.162 32.5904C118.845 33.2725 119.228 34.1976 119.228 35.1622C119.228 36.1268 118.845 37.0519 118.162 37.734C117.48 38.416 116.554 38.7992 115.588 38.7992H112.111V42.8417C112.111 43.0965 112.053 43.1776 111.809 43.1776H111.265C111.021 43.1776 110.928 43.0965 110.928 42.8417V31.861C110.928 31.6062 111.021 31.5251 111.265 31.5251H115.588ZM115.484 37.6525C115.816 37.6525 116.145 37.5872 116.451 37.4603C116.758 37.3334 117.036 37.1474 117.271 36.9129C117.506 36.6784 117.692 36.4001 117.819 36.0937C117.946 35.7874 118.011 35.459 118.011 35.1274C118.011 34.7958 117.946 34.4675 117.819 34.1611C117.692 33.8547 117.506 33.5764 117.271 33.3419C117.036 33.1074 116.758 32.9214 116.451 32.7945C116.145 32.6676 115.816 32.6023 115.484 32.6023H112.006V37.6525H115.484ZM128.282 31.2934C129.177 31.1947 130.08 31.3871 130.857 31.842C131.633 32.2969 132.243 32.9901 132.594 33.8185C132.687 34.0039 132.594 34.1544 132.408 34.2471L131.898 34.4788C131.69 34.5598 131.609 34.5483 131.481 34.3282C131.218 33.7133 130.767 33.1979 130.192 32.8564C129.617 32.5149 128.948 32.3651 128.282 32.4286C126.323 32.4286 125.256 33.2046 125.256 34.5946C125.245 35.0194 125.388 35.434 125.658 35.7618C125.929 36.0896 126.309 36.3086 126.728 36.3784C127.352 36.5816 127.998 36.7061 128.653 36.749C129.445 36.7912 130.226 36.9513 130.971 37.2239C131.542 37.4045 132.034 37.7759 132.363 38.2758C132.692 38.7757 132.839 39.3736 132.779 39.9691C132.779 42.1351 131.203 43.444 128.305 43.444C127.354 43.5527 126.395 43.3326 125.587 42.8204C124.779 42.3083 124.172 41.535 123.865 40.6293C123.845 40.5881 123.834 40.5428 123.833 40.4967C123.832 40.4506 123.841 40.405 123.86 40.3629C123.879 40.3208 123.907 40.2835 123.942 40.2534C123.977 40.2234 124.018 40.2015 124.062 40.1892L124.572 40.0039C124.612 39.9875 124.656 39.9796 124.699 39.9807C124.742 39.9819 124.785 39.9921 124.824 40.0106C124.863 40.0291 124.898 40.0556 124.927 40.0883C124.955 40.1211 124.977 40.1594 124.99 40.2008C125.249 40.8551 125.71 41.41 126.306 41.7848C126.902 42.1597 127.602 42.3351 128.305 42.2857C130.496 42.2857 131.574 41.5212 131.574 39.9691C131.594 39.5611 131.469 39.1591 131.221 38.8346C130.972 38.5101 130.617 38.2841 130.218 38.1969C129.618 38.0181 128.999 37.9093 128.374 37.8726L127.122 37.7104C126.731 37.6273 126.344 37.5229 125.963 37.3977C125.588 37.2843 125.237 37.0994 124.932 36.8533C124.624 36.575 124.382 36.2326 124.221 35.8503C124.061 35.468 123.987 35.0551 124.004 34.6409C124.085 32.6139 125.604 31.2934 128.282 31.2934ZM139.028 39.2162C139.077 40.0353 139.437 40.8048 140.035 41.3674C140.633 41.93 141.423 42.2433 142.244 42.2433C143.066 42.2433 143.856 41.93 144.454 41.3674C145.052 40.8048 145.412 40.0353 145.461 39.2162V31.861C145.461 31.6062 145.542 31.5251 145.797 31.5251H146.331C146.586 31.5251 146.667 31.6062 146.667 31.861V39.2046C146.667 41.834 145.113 43.4209 142.25 43.4209C139.387 43.4209 137.834 41.834 137.834 39.2046V31.861C137.834 31.6062 137.915 31.5251 138.158 31.5251H138.703C138.946 31.5251 139.028 31.6062 139.028 31.861V39.2162ZM162.664 31.5251C162.919 31.5251 163 31.6062 163 31.861V42.8417C163 43.0965 162.919 43.1776 162.664 43.1776H162.177C161.934 43.1776 161.852 43.0965 161.852 42.8417V36.1583C161.852 35.1859 161.918 34.2145 162.049 33.251H161.98C161.618 34.1321 161.196 34.9874 160.716 35.8108L158.224 40.2008C158.194 40.2769 158.141 40.3421 158.072 40.3876C158.004 40.433 157.924 40.4568 157.842 40.4556H157.517C157.434 40.456 157.352 40.4321 157.282 40.3868C157.212 40.3416 157.157 40.2769 157.123 40.2008L154.596 35.7645C154.147 34.9528 153.759 34.1088 153.437 33.2394H153.367C153.486 34.2118 153.548 35.1903 153.552 36.1699V42.8417C153.552 43.0965 153.471 43.1776 153.216 43.1776H152.764C152.509 43.1776 152.428 43.0965 152.428 42.8417V31.861C152.428 31.6062 152.509 31.5251 152.764 31.5251H153.182C153.277 31.5162 153.373 31.5371 153.456 31.5848C153.539 31.6325 153.605 31.7047 153.645 31.7915L157.702 38.9961L161.736 31.861C161.864 31.6178 161.934 31.583 162.189 31.583L162.664 31.5251ZM30.1199 40.6062V48.9807C30.1199 49.3017 29.9923 49.6096 29.7651 49.8366C29.5379 50.0636 29.2298 50.1911 28.9085 50.1911C28.5872 50.1911 28.2791 50.0636 28.052 49.8366C27.8248 49.6096 27.6971 49.3017 27.6971 48.9807V40.6178C28.0344 40.8639 28.4388 41.0013 28.8564 41.0116C29.3115 41.0246 29.7574 40.8815 30.1199 40.6062ZM40.4369 38.1853C40.1294 38.1853 39.8346 38.3074 39.6172 38.5246C39.3998 38.7418 39.2776 39.0364 39.2776 39.3436V40.8031C39.2776 41.1241 39.4053 41.432 39.6324 41.659C39.8596 41.886 40.1677 42.0135 40.489 42.0135C40.8103 42.0135 41.1184 41.886 41.3456 41.659C41.5728 41.432 41.7004 41.1241 41.7004 40.8031V39.4015C41.7094 39.2355 41.6825 39.0694 41.6216 38.9146C41.5606 38.7598 41.467 38.62 41.3471 38.5046C41.2272 38.3892 41.0839 38.3009 40.9268 38.2458C40.7697 38.1908 40.6026 38.1701 40.4369 38.1853ZM25.0657 43.7799C24.6486 43.7674 24.2448 43.6303 23.9065 43.3861V51.7838C23.9065 52.1063 24.0348 52.4157 24.263 52.6438C24.4913 52.8719 24.8009 53 25.1237 53C25.4465 53 25.7561 52.8719 25.9844 52.6438C26.2126 52.4157 26.3409 52.1063 26.3409 51.7838V43.444C25.9623 43.6885 25.5157 43.8062 25.0657 43.7799ZM36.6578 35.6718C36.5008 35.664 36.3438 35.6881 36.1964 35.7428C36.049 35.7975 35.9143 35.8815 35.8004 35.9899C35.6866 36.0982 35.5959 36.2286 35.5341 36.3731C35.4723 36.5175 35.4405 36.673 35.4407 36.8301V43.2819C35.4407 43.6044 35.5689 43.9138 35.7972 44.1418C36.0254 44.3699 36.335 44.4981 36.6578 44.4981C36.9806 44.4981 37.2902 44.3699 37.5185 44.1418C37.7468 43.9138 37.875 43.6044 37.875 43.2819V36.9112C37.8842 36.744 37.8571 36.5769 37.7955 36.4212C37.7338 36.2655 37.6392 36.125 37.518 36.0094C37.3968 35.8938 37.2519 35.8059 37.0934 35.7516C36.9349 35.6973 36.7666 35.678 36.5999 35.695L36.6578 35.6718ZM32.8093 38.1506C32.3726 38.1476 31.9476 38.0101 31.5921 37.7568V46.1776C31.5921 46.5002 31.7203 46.8095 31.9486 47.0376C32.1769 47.2657 32.4864 47.3938 32.8093 47.3938C33.1321 47.3938 33.4417 47.2657 33.6699 47.0376C33.8982 46.8095 34.0264 46.5002 34.0264 46.1776V37.7683C33.6587 38.0421 33.2097 38.1848 32.7513 38.1737L32.8093 38.1506ZM22.4343 44.6023V21.0772C22.4313 20.7905 22.3151 20.5165 22.1111 20.3148C21.9071 20.1131 21.6317 20 21.3447 20H21.0897C20.8027 20 20.5272 20.1131 20.3232 20.3148C20.1192 20.5165 20.0031 20.7905 20 21.0772V44.6023C20 44.8911 20.1148 45.168 20.3192 45.3722C20.5235 45.5764 20.8007 45.6911 21.0897 45.6911H21.3447C21.6337 45.6911 21.9108 45.5764 22.1152 45.3722C22.3195 45.168 22.4343 44.8911 22.4343 44.6023ZM25.1933 42.888H24.9382C24.6492 42.888 24.3721 42.7733 24.1677 42.5691C23.9634 42.3649 23.8486 42.088 23.8486 41.7992V23.8803C23.8516 23.5936 23.9678 23.3196 24.1718 23.1179C24.3758 22.9162 24.6512 22.8031 24.9382 22.8031H25.1933C25.4803 22.8031 25.7557 22.9162 25.9597 23.1179C26.1637 23.3196 26.2799 23.5936 26.2829 23.8803V41.8224C26.2829 41.9654 26.2547 42.107 26.2 42.2391C26.1452 42.3712 26.0649 42.4912 25.9638 42.5923C25.8626 42.6934 25.7425 42.7736 25.6102 42.8283C25.478 42.883 25.3364 42.9112 25.1933 42.9112V42.888ZM29.0302 40.1313H28.7636C28.4777 40.1313 28.2035 40.0178 28.0013 39.8158C27.7991 39.6137 27.6856 39.3398 27.6856 39.0541V26.6602C27.684 26.5178 27.7108 26.3765 27.7643 26.2444C27.8178 26.1124 27.8969 25.9923 27.9972 25.891C28.0974 25.7898 28.2168 25.7094 28.3484 25.6545C28.4799 25.5997 28.6211 25.5714 28.7636 25.5714H29.0302C29.3172 25.5745 29.5914 25.6905 29.7933 25.8944C29.9951 26.0983 30.1083 26.3735 30.1083 26.6602V39.0541C30.1083 39.3398 29.9947 39.6137 29.7925 39.8158C29.5904 40.0178 29.3162 40.1313 29.0302 40.1313ZM32.8672 37.2934H32.6238C32.3368 37.2935 32.0614 37.1803 31.8574 36.9786C31.6533 36.7769 31.5372 36.503 31.5341 36.2162V29.5444C31.5246 29.3957 31.5457 29.2466 31.5962 29.1064C31.6467 28.9661 31.7255 28.8378 31.8276 28.7292C31.9298 28.6206 32.0531 28.5341 32.1901 28.4751C32.327 28.4161 32.4746 28.3858 32.6238 28.3861H32.8788C33.1678 28.3861 33.445 28.5008 33.6493 28.705C33.8537 28.9092 33.9685 29.1861 33.9685 29.4749V36.1931C33.97 36.337 33.9429 36.4798 33.8889 36.6133C33.8348 36.7467 33.7548 36.8681 33.6534 36.9705C33.5521 37.0728 33.4315 37.154 33.2985 37.2095C33.1655 37.2649 33.0229 37.2934 32.8788 37.2934H32.8672ZM36.7158 34.8031H36.4608C36.1718 34.8031 35.8946 34.6884 35.6903 34.4842C35.4859 34.28 35.3711 34.0031 35.3711 33.7143V31.9884C35.3742 31.7017 35.4903 31.4277 35.6943 31.226C35.8984 31.0243 36.1738 30.9112 36.4608 30.9112H36.7158C37.0028 30.9112 37.2782 31.0243 37.4822 31.226C37.6862 31.4277 37.8024 31.7017 37.8054 31.9884V33.7143C37.8055 34.0011 37.6923 34.2763 37.4904 34.4801C37.2886 34.684 37.0144 34.8 36.7274 34.8031H36.7158Z" fill="#9600C8"/>
</g>
<defs>
<filter id="filter0_d_2_2" x="-4" y="67" width="191" height="657" filterUnits="userSpaceOnUse" color-interpolation-filters="sRGB">
<feFlood flood-opacity="0" result="BackgroundImageFix"/>
<feColorMatrix in="SourceAlpha" type="matrix" values="0 0 0 0 0 0 0 0 0 0 0 0 0 0 0 0 0 0 127 0" result="hardAlpha"/>
<feOffset/>
<feGaussianBlur stdDeviation="2"/>
<feComposite in2="hardAlpha" operator="out"/>
<feColorMatrix type="matrix" values="0 0 0 0 0.945098 0 0 0 0 0.870588 0 0 0 0 0.968627 0 0 0 1 0"/>
<feBlend mode="normal" in2="BackgroundImageFix" result="effect1_dropShadow_2_2"/>
<feBlend mode="normal" in="SourceGraphic" in2="effect1_dropShadow_2_2" result="shape"/>
</filter>
<filter id="filter1_d_2_2" x="-4" y="-4" width="1288" height="79" filterUnits="userSpaceOnUse" color-interpolation-filters="sRGB">
<feFlood flood-opacity="0" result="BackgroundImageFix"/>
<feColorMatrix in="SourceAlpha" type="matrix" values="0 0 0 0 0 0 0 0 0 0 0 0 0 0 0 0 0 0 127 0" result="hardAlpha"/>
<feOffset/>
<feGaussianBlur stdDeviation="2"/>
<feComposite in2="hardAlpha" operator="out"/>
<feColorMatrix type="matrix" values="0 0 0 0 0.945098 0 0 0 0 0.870588 0 0 0 0 0.968627 0 0 0 1 0"/>
<feBlend mode="normal" in2="BackgroundImageFix" result="effect1_dropShadow_2_2"/>
<feBlend mode="normal" in="SourceGraphic" in2="effect1_dropShadow_2_2" result="shape"/>
</filter>
<clipPath id="clip0_2_2">
<rect width="1280" height="720" fill="white"/>
</clipPath>
</defs>
</svg>
