<svg width="428" height="428" viewBox="0 0 428 428" fill="none" xmlns="http://www.w3.org/2000/svg">
<path id="icon" d="M327.92 74.48C322.857 74.48 317.907 75.9814 313.697 78.7944C309.487 81.6073 306.206 85.6055 304.269 90.2833C302.331 94.9611 301.824 100.108 302.812 105.074C303.8 110.04 306.238 114.602 309.818 118.182C313.398 121.762 317.96 124.2 322.926 125.188C327.892 126.176 333.039 125.669 337.717 123.731C342.394 121.794 346.393 118.512 349.206 114.303C352.019 110.093 353.52 105.143 353.52 100.08C353.52 93.2905 350.823 86.779 346.022 81.9781C341.221 77.1771 334.71 74.48 327.92 74.48ZM426.053 126.107C425.638 108.406 422.323 90.8939 416.24 74.2667C410.816 60.0402 402.373 47.1579 391.493 36.5067C380.93 25.5718 368.017 17.1824 353.733 11.9733C337.15 5.70476 319.618 2.31381 301.893 1.94667C279.28 0.666667 272.027 0.666668 214 0.666668C155.973 0.666668 148.72 0.666667 126.107 1.94667C108.382 2.31381 90.85 5.70476 74.2667 11.9733C60.0091 17.2352 47.1079 25.6173 36.5067 36.5067C25.5718 47.0705 17.1824 59.9827 11.9733 74.2667C5.70476 90.85 2.31381 108.382 1.94667 126.107C0.666667 148.72 0.666668 155.973 0.666668 214C0.666668 272.027 0.666667 279.28 1.94667 301.893C2.31381 319.618 5.70476 337.15 11.9733 353.733C17.1824 368.017 25.5718 380.93 36.5067 391.493C47.1079 402.383 60.0091 410.765 74.2667 416.027C90.85 422.295 108.382 425.686 126.107 426.053C148.72 427.333 155.973 427.333 214 427.333C272.027 427.333 279.28 427.333 301.893 426.053C319.618 425.686 337.15 422.295 353.733 416.027C368.017 410.818 380.93 402.428 391.493 391.493C402.421 380.882 410.871 367.988 416.24 353.733C422.323 337.106 425.638 319.594 426.053 301.893C426.053 279.28 427.333 272.027 427.333 214C427.333 155.973 427.333 148.72 426.053 126.107ZM387.653 299.333C387.498 312.875 385.045 326.292 380.4 339.013C376.994 348.297 371.523 356.686 364.4 363.547C357.48 370.597 349.109 376.057 339.867 379.547C327.146 384.192 313.728 386.645 300.187 386.8C278.853 387.867 270.96 388.08 214.853 388.08C158.747 388.08 150.853 388.08 129.52 386.8C115.459 387.063 101.458 384.898 88.1333 380.4C79.2967 376.732 71.3089 371.286 64.6667 364.4C57.5859 357.547 52.1833 349.151 48.88 339.867C43.6716 326.963 40.7828 313.241 40.3467 299.333C40.3467 278 39.0667 270.107 39.0667 214C39.0667 157.893 39.0667 150 40.3467 128.667C40.4423 114.823 42.9696 101.103 47.8133 88.1333C51.569 79.1288 57.3337 71.102 64.6667 64.6667C71.148 57.3316 79.1581 51.506 88.1333 47.6C101.137 42.9076 114.843 40.455 128.667 40.3467C150 40.3467 157.893 39.0667 214 39.0667C270.107 39.0667 278 39.0667 299.333 40.3467C312.875 40.502 326.292 42.9546 339.013 47.6C348.708 51.1979 357.409 57.0474 364.4 64.6667C371.391 71.2198 376.854 79.2316 380.4 88.1333C385.141 101.124 387.595 114.838 387.653 128.667C388.72 150 388.933 157.893 388.933 214C388.933 270.107 388.72 278 387.653 299.333ZM214 104.56C192.364 104.602 171.226 111.057 153.257 123.108C135.287 135.159 121.293 152.266 113.043 172.267C104.792 192.268 102.655 214.266 106.902 235.481C111.149 256.696 121.589 276.177 136.903 291.461C152.217 306.745 171.718 317.147 192.941 321.352C214.164 325.558 236.158 323.378 256.143 315.089C276.128 306.799 293.208 292.772 305.224 274.779C317.24 256.787 323.653 235.636 323.653 214C323.682 199.602 320.863 185.341 315.36 172.036C309.857 158.732 301.777 146.647 291.587 136.476C281.396 126.305 269.295 118.249 255.98 112.772C242.664 107.295 228.398 104.504 214 104.56ZM214 285.04C199.95 285.04 186.215 280.874 174.532 273.068C162.85 265.262 153.744 254.167 148.368 241.186C142.991 228.205 141.584 213.921 144.325 200.141C147.066 186.36 153.832 173.702 163.767 163.767C173.702 153.832 186.36 147.066 200.141 144.325C213.921 141.584 228.205 142.991 241.186 148.368C254.167 153.744 265.262 162.85 273.068 174.532C280.874 186.215 285.04 199.95 285.04 214C285.04 223.329 283.202 232.567 279.632 241.186C276.062 249.805 270.83 257.636 264.233 264.233C257.636 270.83 249.805 276.062 241.186 279.632C232.567 283.202 223.329 285.04 214 285.04Z" fill="black"/>
<style>
    #icon {
	animation: color-change-2x 5s linear infinite alternate both;
    }

    @keyframes color-change-2x {
    0% {
        fill:rgb(157, 187, 189);
    }
    100% {
        fill: #b22cff;
    }
    }
</style>
</svg>